/* XPM */
static char * hide_pressed_xpm[] = {
"24 26 2 1",
" 	c None",
".	c #950EA1 s active_shadow_1",
"........................",
"........................",
"........................",
"........................",
"........................",
"........................",
"........................",
"........................",
"........................",
"........................",
"........................",
"........................",
"........................",
"........................",
"........................",
"........................",
"........................",
"........................",
"                        ",
"                        ",
"                        ",
"                        ",
"                        ",
"                        ",
"                        ",
"                        "};
