/* XPM */
static char * E:\Pictures\Drawing\xfce_crazy8s\menu_pressed_xpm[] = {
"24 26 3 1",
" 	c None",
".	c #950EA1 s active_shadow_1",
"+	c #000000",
"........................",
"........................",
"........................",
"........................",
"........................",
"........+......+........",
"........++....++........",
"........++++++++........",
"........++.++.++........",
"........++++++++........",
".........++++++.........",
"..........++++..........",
"...........++...........",
"........................",
"........................",
"........................",
"........................",
"........................",
"                        ",
"                        ",
"                        ",
"                        ",
"                        ",
"                        ",
"                        ",
"                        "};
