/* XPM */
static char * E:\Pictures\Drawing\xfce_crazy8s\crazy_8s_v6\xfwm4\menu_prelight_xpm[] = {
"24 26 4 1",
" 	c None",
".	c #950EA1 s active_shadow_1",
"+	c #37CF5E s active_hilight_1",
"@	c #CC2BDA s active_mid_1",
"........................",
"++++++++++++++++++++++++",
"++++++++++++++++++++++++",
"++++++++++++++++++++++++",
"++++++++++++++++++++++++",
"++++++++.++++++.++++++++",
"++++++++..++++..++++++++",
"++++++++........++++++++",
"++++++++..+..+..++++++++",
"++++++++..@..@..++++++++",
"+++++++++......+++++++++",
"++++++++++....++++++++++",
"+++++++++++..+++++++++++",
"++++++++++++++++++++++++",
"++++++++++++++++++++++++",
"++++++++++++++++++++++++",
"++++++++++++++++++++++++",
"++++++++++++++++++++++++",
"                        ",
"                        ",
"                        ",
"                        ",
"                        ",
"                        ",
"                        ",
"                        "};
