/* XPM */
static char * E:\Pictures\Drawing\xfce_crazy8s\crazy_8s_v5\xfwm4\title_1_inactive_xpm[] = {
"4 26 4 1",
" 	c None",
".	c #6D4242 s inactive_shadow_1",
"+	c #AF7A7A s inactive_color_2",
"@	c #A16363 s inactive_color_2",
"....",
"++++",
"++++",
"++++",
"++++",
"++++",
"++++",
"++++",
"++++",
"++++",
"++++",
"++++",
"++++",
"++++",
"++++",
"++++",
"++++",
"++++",
"++++",
"++++",
"++++",
"++++",
"++++",
"++++",
"++++",
"@@@@"};
