/* XPM */
static char * E:\Pictures\Drawing\xfce_crazy8s\crazy_8s_v5\xfwm4\top_left_active_xpm[] = {
"4 26 4 1",
" 	c None",
".	c #950EA1 s active_shadow_1",
"+	c #E741D2 s active_color_1",
"@	c #CC2BDA s active_mid_1",
"....",
".+++",
".+++",
".+++",
".+++",
".+++",
".+++",
".+++",
".+++",
".+++",
".+++",
".+++",
".+++",
".+++",
".+++",
".+++",
".+++",
".+++",
".+++",
".+++",
".+++",
".+++",
".+++",
".+++",
".+++",
".++@"};
